<svg width="216" height="30" viewBox="0 0 216 30" fill="none" xmlns="http://www.w3.org/2000/svg">
<path d="M0 29.5028H13.974C20.6044 29.5028 24.9686 26.8508 24.9686 21.547V21.4641C24.9686 17.5691 22.8704 15.6215 19.4713 14.337C21.5695 13.1768 23.332 11.3536 23.332 8.08011V7.99724C23.332 6.00829 22.6606 4.39227 21.3178 3.0663C19.6392 1.40884 16.9955 0.497236 13.6383 0.497236H0V29.5028ZM6.29461 12.2238V6.09116H12.6732C15.4008 6.09116 16.9115 7.16851 16.9115 9.07459V9.15746C16.9115 11.3122 15.1071 12.2238 12.2535 12.2238H6.29461ZM6.29461 23.9088V17.5276H13.7642C17.0794 17.5276 18.5481 18.7293 18.5481 20.6768V20.7597C18.5481 22.9144 16.8276 23.9088 13.974 23.9088H6.29461Z" fill="white"/>
<path d="M30.2846 29.5028H36.7471V20.221H41.8248L48.1194 29.5028H55.6729L48.4971 19.1436C52.2319 17.7762 54.7917 14.8343 54.7917 10.1519V10.0691C54.7917 7.33425 53.9104 5.05525 52.2738 3.43923C50.3435 1.53315 47.4479 0.497236 43.7131 0.497236H30.2846V29.5028ZM36.7471 14.5856V6.2569H43.1676C46.3149 6.2569 48.2453 7.66575 48.2453 10.4006V10.4834C48.2453 12.9282 46.4408 14.5856 43.2935 14.5856H36.7471Z" fill="white"/>
<path d="M74.878 30C83.9423 30 90.5306 23.2459 90.5306 15V14.9171C90.5306 6.67127 84.0262 0 74.962 0C65.8977 0 59.3094 6.75414 59.3094 15V15.0829C59.3094 23.3287 65.8138 30 74.878 30ZM74.962 24.116C69.7584 24.116 66.0656 19.9724 66.0656 15V14.9171C66.0656 9.94475 69.6745 5.88398 74.878 5.88398C80.0816 5.88398 83.7744 10.0276 83.7744 15V15.0829C83.7744 20.0553 80.1655 24.116 74.962 24.116Z" fill="white"/>
<path d="M96.2633 29.5028H107.72C116.952 29.5028 123.33 23.163 123.33 15V14.9171C123.33 6.75414 116.952 0.497236 107.72 0.497236H96.2633V29.5028ZM102.726 23.7431V6.2569H107.72C113.007 6.2569 116.574 9.86188 116.574 15V15.0829C116.574 20.221 113.007 23.7431 107.72 23.7431H102.726Z" fill="white"/>
<path d="M141.342 29.9586C149.232 29.9586 154.225 25.6492 154.225 16.8646V0.497236H147.763V17.1133C147.763 21.7127 145.371 24.0746 141.426 24.0746C137.482 24.0746 135.09 21.6298 135.09 16.9061V0.497236H128.627V17.0718C128.627 25.6077 133.453 29.9586 141.342 29.9586Z" fill="white"/>
<path d="M160.808 29.5028H172.264C181.496 29.5028 187.875 23.163 187.875 15V14.9171C187.875 6.75414 181.496 0.497236 172.264 0.497236H160.808V29.5028ZM167.27 23.7431V6.2569H172.264C177.551 6.2569 181.118 9.86188 181.118 15V15.0829C181.118 20.221 177.551 23.7431 172.264 23.7431H167.27Z" fill="white"/>
<path d="M193.633 29.5028H216V23.826H200.054V17.7348H213.902V12.058H200.054V6.17403H215.79V0.497236H193.633V29.5028Z" fill="white"/>
</svg>
