<svg width="201" height="30" viewBox="0 0 201 30" fill="none" xmlns="http://www.w3.org/2000/svg">
<path d="M20.7489 30H0.599976L3.10498 10.4727L20.0954 0L34.9076 17.6727L35.0165 18.4364L20.0954 1.85455V3.81818L35.0165 19.2L35.1254 19.9636L20.2043 5.67273V7.85455L35.2343 20.7273L35.3432 21.4909L20.3132 9.70909V11.6727L35.5611 22.2545L35.67 23.0182L20.4222 13.6364V15.4909L35.7789 23.7818L35.8878 24.5455L20.5311 17.4545V19.4182L36.1056 25.4182L36.2145 26.1818L20.64 21.3818V23.5636L36.3235 27.0545L36.4324 27.8182L20.64 25.4182V27.3818L36.5413 28.4727L36.6502 29.5636L20.7489 30ZM114.959 16.2545V20.7273C112.78 21.8182 111.473 22.9091 109.949 22.9091C108.315 22.9091 106.79 22.2545 106.79 20.5091C106.79 17.6727 109.513 16.1455 114.959 16.2545ZM102.978 9.16364C105.157 7.63636 108.533 6.43636 110.929 6.43636C114.305 6.43636 115.068 7.52727 115.068 10.6909C105.592 10.9091 98.7306 13.4182 98.7306 21.1636C98.7306 25.3091 101.236 29.2364 108.097 29.2364C111.909 29.2364 114.632 28.1455 117.246 26.0727C118.988 29.0182 121.276 29.2364 122.692 29.2364C123.781 29.2364 124.87 29.0182 124.87 28.6909V22.5818C122.692 22.8 122.692 20.9455 122.692 18.3273V9.92727C122.692 6.76364 122.256 0 111.691 0C109.84 0 104.939 0.218182 99.7109 3.92727L102.978 9.16364ZM43.9474 24C47.4326 27.6 50.5911 29.2364 55.3832 29.2364C62.3537 29.2364 70.3043 25.5273 70.3043 14.1818C70.3043 2.4 61.3735 0 55.6011 0C53.205 0 48.8485 0.872727 44.8187 4.25455L49.0663 8.94545C50.8089 6.98182 52.9872 6.10909 55.3832 6.10909C60.3932 6.10909 60.8289 10.1455 60.9378 12.1091L51.7891 11.5636V17.8909L60.9378 17.3455C60.8289 18.9818 60.1754 23.1273 55.2743 23.1273C51.898 23.1273 49.6109 21.2727 48.195 19.5273L43.9474 24ZM79.0174 7.09091V30H86.6413V7.09091H94.2652V0.545455H72.4826V7.09091H79.0174ZM153.078 30V16.5818C156.346 16.3636 156.999 17.8909 158.851 21.9273C160.484 25.4182 162.118 29.2364 166.91 29.2364C167.673 29.2364 168.326 29.1273 169.415 28.6909V22.5818C167.237 22.3636 167.455 21.4909 165.821 18.7636C163.534 14.7273 162.227 13.7455 160.702 13.5273C163.098 12.8727 164.187 11.3455 164.95 10.2545C166.148 8.50909 167.019 6.87273 168.871 6.87273C169.088 6.87273 168.326 6.87273 169.415 6.98182V0.545455C168.326 0.109091 168.108 0 166.801 0C162.554 0 160.158 2.83636 157.653 6.76364C156.346 8.83636 155.148 10.5818 152.969 10.3636V0.545455H145.345V10.4727C143.167 10.6909 142.405 8.83636 141.098 6.87273C138.593 2.83636 136.306 0.109091 132.058 0.109091C130.751 0.109091 130.098 0.327273 129.008 0.654545V6.98182C129.008 6.87273 129.771 6.87273 129.989 6.87273C131.84 6.87273 133.038 8.50909 134.236 10.2545C134.999 11.3455 135.979 12.8727 138.375 13.5273C136.85 13.7455 134.781 14.8364 132.494 18.7636C130.86 21.4909 131.187 22.4727 127.919 22.5818V28.6909C129.008 29.1273 130.533 29.2364 131.296 29.2364C136.088 29.2364 138.157 25.4182 139.9 21.9273C141.86 17.8909 140.989 16.3636 145.345 16.5818V30H153.078ZM183.574 15.1636V0.545455H175.95V30H183.574V24.6545L193.376 14.4V30H201V0.545455H193.376V5.01818L183.574 15.1636Z" fill="white"/>
</svg>
