<svg width="50" height="50" viewBox="0 0 50 50" fill="none" xmlns="http://www.w3.org/2000/svg">
<path d="M37.5042 12.0345C36.5078 12.0345 35.6611 11.6874 34.964 10.993C34.2668 10.2986 33.9183 9.4533 33.9183 8.45698C33.9183 7.46063 34.2655 6.61389 34.9598 5.91677C35.6541 5.21965 36.4995 4.87109 37.4958 4.87109C38.4922 4.87109 39.3389 5.21826 40.036 5.9126C40.7332 6.60695 41.0817 7.45229 41.0817 8.44865C41.0817 9.445 40.7346 10.2917 40.0402 10.9889C39.3459 11.686 38.5005 12.0345 37.5042 12.0345ZM34.375 45.3117V28.2725C34.375 27.2257 34.1279 26.2836 33.6338 25.4461C33.1397 24.6087 32.3825 23.9789 31.3622 23.5569L33.5978 17.367C33.8755 16.5524 34.3743 15.898 35.0942 15.4039C35.814 14.9098 36.6159 14.6628 37.5 14.6628C38.3841 14.6628 39.186 14.9065 39.9058 15.3939C40.6257 15.8813 41.1245 16.539 41.4022 17.367L46.875 32.3109H41.1258V45.3117H34.375ZM25.859 23.8774C25.0326 23.8774 24.339 23.5929 23.7781 23.0238C23.2172 22.4546 22.9367 21.7635 22.9367 20.9505C22.9367 20.1374 23.218 19.447 23.7804 18.8795C24.3429 18.3119 25.0373 18.0281 25.8638 18.0281C26.6768 18.0281 27.3671 18.3127 27.9347 18.8819C28.5023 19.451 28.786 20.1421 28.786 20.9552C28.786 21.7682 28.5015 22.4585 27.9324 23.0261C27.3632 23.5937 26.6721 23.8774 25.859 23.8774ZM11.4625 12.0345C10.4661 12.0345 9.61941 11.6874 8.9223 10.993C8.22518 10.2986 7.87662 9.4533 7.87662 8.45698C7.87662 7.46063 8.22379 6.61389 8.91813 5.91677C9.61247 5.21965 10.4578 4.87109 11.4542 4.87109C12.4505 4.87109 13.2973 5.21826 13.9944 5.9126C14.6915 6.60695 15.0401 7.45229 15.0401 8.44865C15.0401 9.445 14.6929 10.2917 13.9985 10.9889C13.3042 11.686 12.4589 12.0345 11.4625 12.0345ZM7.91266 45.3117V30.7885H4.24683V18.0281C4.24683 17.2122 4.54363 16.5074 5.13724 15.9137C5.73085 15.3201 6.43565 15.0233 7.25162 15.0233H15.6651C16.481 15.0233 17.1858 15.3201 17.7794 15.9137C18.373 16.5074 18.6698 17.2122 18.6698 18.0281V30.7885H15.004V45.3117H7.91266ZM23.1971 45.3117V37.1187H20.7332V28.2725C20.7332 27.6526 20.9502 27.1257 21.3841 26.6918C21.818 26.2579 22.3449 26.0409 22.9648 26.0409H28.738C29.3578 26.0409 29.8847 26.2579 30.3186 26.6918C30.7526 27.1257 30.9695 27.6526 30.9695 28.2725V37.1187H28.5056V45.3117H23.1971Z" fill="#130909"/>
</svg>
