<svg width="50" height="50" viewBox="0 0 50 50" fill="none" xmlns="http://www.w3.org/2000/svg">
<path d="M27.8845 27.2433C26.4288 27.2433 25.1969 26.7392 24.1886 25.7309C23.1804 24.7226 22.6762 23.4907 22.6762 22.035C22.6762 20.5794 23.1804 19.3475 24.1886 18.3392C25.1969 17.3309 26.4288 16.8268 27.8845 16.8268C29.3401 16.8268 30.5721 17.3309 31.5804 18.3392C32.5886 19.3475 33.0928 20.5794 33.0928 22.035C33.0928 23.4907 32.5886 24.7226 31.5804 25.7309C30.5721 26.7392 29.3401 27.2433 27.8845 27.2433ZM12.6201 34.4548C11.8042 34.4548 11.0994 34.158 10.5058 33.5644C9.91216 32.9708 9.61536 32.266 9.61536 31.45V12.62C9.61536 11.8041 9.91216 11.0993 10.5058 10.5057C11.0994 9.91204 11.8042 9.61523 12.6201 9.61523H43.1488C43.9648 9.61523 44.6696 9.91204 45.2632 10.5057C45.8568 11.0993 46.1536 11.8041 46.1536 12.62V31.45C46.1536 32.266 45.8568 32.9708 45.2632 33.5644C44.6696 34.158 43.9648 34.4548 43.1488 34.4548H12.6201ZM16.5063 32.0911H39.2627C39.2627 30.8331 39.7036 29.7641 40.5853 28.884C41.467 28.0039 42.5352 27.5639 43.7899 27.5639V16.5062C42.5319 16.5062 41.4628 16.0653 40.5828 15.1836C39.7027 14.3018 39.2627 13.2336 39.2627 11.979H16.5063C16.5063 13.237 16.0654 14.306 15.1837 15.1861C14.302 16.0661 13.2338 16.5062 11.9791 16.5062V27.5639C13.2371 27.5639 14.3061 28.0047 15.1862 28.8865C16.0663 29.7682 16.5063 30.8364 16.5063 32.0911ZM39.9437 40.224H6.85098C6.03501 40.224 5.33022 39.9272 4.73661 39.3336C4.143 38.74 3.84619 38.0352 3.84619 37.2192V15.8252H6.20989V37.2192C6.20989 37.3795 6.27668 37.5264 6.41025 37.66C6.5438 37.7935 6.69071 37.8603 6.85098 37.8603H39.9437V40.224ZM12.6201 32.0911H11.9791V11.979H12.6201C12.4465 11.979 12.2963 12.0424 12.1694 12.1693C12.0425 12.2962 11.9791 12.4464 11.9791 12.62V31.45C11.9791 31.6236 12.0425 31.7739 12.1694 31.9008C12.2963 32.0277 12.4465 32.0911 12.6201 32.0911Z" fill="#130909"/>
</svg>
