<svg width="50" height="50" viewBox="0 0 50 50" fill="none" xmlns="http://www.w3.org/2000/svg">
<path d="M13.754 40.9455C12.9447 40.9455 12.2784 40.6971 11.7548 40.2002C11.2313 39.7035 10.9696 39.0571 10.9696 38.2612C10.9696 37.703 11.1125 37.1841 11.3983 36.7047C11.6841 36.2253 12.0887 35.8841 12.6122 35.6811L21.6507 32.0994V24.0304C19.172 27.0432 16.839 29.2381 14.6515 30.6149C12.464 31.9918 9.89056 32.7537 6.93115 32.9006V30.5169C9.17206 30.4501 11.2447 29.8798 13.1491 28.8061C15.0534 27.7324 16.7869 26.226 18.3494 24.2869L21.3302 20.9616C21.6239 20.585 21.9852 20.2745 22.4139 20.0301C22.8426 19.7857 23.308 19.6635 23.8101 19.6635H26.1899C26.692 19.6635 27.1628 19.7857 27.6021 20.0301C28.0415 20.2745 28.4148 20.585 28.7219 20.9616L31.6827 24.2869C33.3226 26.1699 35.0701 27.6623 36.9251 28.7641C38.78 29.8658 40.828 30.4501 43.0689 30.5169V32.9006C40.1308 32.7537 37.5627 31.9918 35.3645 30.6149C33.1664 29.2381 30.828 27.0432 28.3493 24.0304V32.0994L37.3878 35.6811C37.9113 35.8841 38.3159 36.2253 38.6017 36.7047C38.8875 37.1841 39.0304 37.703 39.0304 38.2612C39.0304 39.0571 38.7687 39.7035 38.2452 40.2002C37.7217 40.6971 37.0553 40.9455 36.246 40.9455H20.6851V40.613C20.6851 39.7502 20.9362 39.0645 21.4383 38.5557C21.9404 38.0468 22.6229 37.7924 23.4856 37.7924H30.4728C30.7639 37.7924 31.0103 37.6916 31.2119 37.4899C31.4136 37.2883 31.5144 37.0419 31.5144 36.7508C31.5144 36.4596 31.4136 36.2132 31.2119 36.0116C31.0103 35.8099 30.7639 35.7091 30.4728 35.7091H23.4856C22.0246 35.7091 20.856 36.1578 19.98 37.0553C19.1039 37.9527 18.6659 39.1386 18.6659 40.613V40.9455H13.754ZM25 16.4183C24.0118 16.4183 23.1678 16.0684 22.468 15.3686C21.7682 14.6688 21.4183 13.8248 21.4183 12.8366C21.4183 11.8483 21.7682 11.0043 22.468 10.3045C23.1678 9.60476 24.0118 9.25488 25 9.25488C25.9882 9.25488 26.8322 9.60476 27.532 10.3045C28.2318 11.0043 28.5817 11.8483 28.5817 12.8366C28.5817 13.8248 28.2318 14.6688 27.532 15.3686C26.8322 16.0684 25.9882 16.4183 25 16.4183Z" fill="#130909"/>
</svg>
